<svg width="56" height="56" viewBox="0 0 56 56" fill="none" xmlns="http://www.w3.org/2000/svg">
<g clip-path="url(#clip0_3429_1772)">
<path d="M5.03425 36.3701C7.02624 38.1433 10.0562 39.0175 12.626 39.4608C12.5826 39.361 12.5353 39.2622 12.484 39.1643C11.4956 37.2768 9.3659 36.1655 7.27924 36.0917C6.56676 36.0665 5.81345 36.1516 5.03425 36.3701ZM1.41911 36.5667L0.56601 35.2414L1.96786 34.5071C3.83889 33.5273 5.68169 33.146 7.3811 33.2062C10.5246 33.3175 13.5625 35.0052 15.0414 37.829C15.5969 38.89 15.8859 40.0506 15.8445 41.2207L15.7895 42.7779L14.2434 42.6069C9.71549 42.1054 4.04248 40.642 1.41925 36.5667H1.41911Z" fill="#54291A"/>
<path fill-rule="evenodd" clip-rule="evenodd" d="M2.6355 35.7858C4.79911 39.1471 9.62235 40.6405 14.4017 41.1697C14.5548 36.8498 8.86045 32.5255 2.6355 35.7858Z" fill="#EB2F4B"/>
<path d="M3.08462 42.7673C5.73788 38.2341 10.9868 36.5625 15.9436 36.1559L17.5238 36.0262L17.4995 37.6156C17.4893 38.2914 17.3842 38.9447 17.1931 39.5658C15.9593 43.5783 11.7147 45.5614 7.75437 45.5012C6.52524 45.4827 5.23134 45.2856 3.90491 44.8778L2.16287 44.342L3.08448 42.7674L3.08462 42.7673ZM6.86875 42.5586C7.18139 42.5924 7.48823 42.6112 7.78842 42.6157C10.254 42.6533 13.1016 41.6483 14.2154 39.2768C11.5763 39.7042 8.80289 40.6326 6.86875 42.5584V42.5586Z" fill="#54291A"/>
<path fill-rule="evenodd" clip-rule="evenodd" d="M4.32938 43.4971C6.62322 39.5782 11.2645 37.9918 16.0568 37.5986C15.9899 42.0021 10.7084 45.4588 4.32938 43.4971Z" fill="#EB2F4B"/>
<path d="M12.1451 37.9562C16.7774 46.1306 24.5884 51.6699 34.0996 52.1772C35.0085 48.8392 37.6848 46.6861 40.4768 44.44C42.9195 42.4749 45.4646 40.4268 46.583 37.4711C35.1148 37.2922 23.5621 36.557 12.1451 37.9564V37.9562ZM8.57978 37.4282L7.73056 35.6818L9.68823 35.3957C22.542 33.5172 35.5524 34.5117 48.4824 34.6396L50.1965 34.6566L49.9109 36.3026C49.0553 41.2341 45.6105 44.0054 42.3281 46.6461C40.8983 47.7963 39.504 48.9179 38.4617 50.1671C37.0011 51.9175 36.851 52.9742 36.5937 55.0828L35.2863 55.0708C23.4451 54.9616 13.6855 47.9284 8.57992 37.4284L8.57978 37.4282Z" fill="#54291A"/>
<path fill-rule="evenodd" clip-rule="evenodd" d="M9.89972 36.8123C14.15 45.5536 22.8311 53.5279 35.2975 53.6428C36.1859 46.3619 46.9858 44.6287 48.4711 36.0674C35.6348 35.9403 22.6195 34.9533 9.89972 36.8123Z" fill="#EB2F4B"/>
<path d="M20.8127 8.5195C18.6986 6.74576 15.8466 4.86947 13.2725 3.81583C12.3039 6.7542 12.1299 11.4075 12.9629 14.3461L13.1358 14.9563L12.8044 15.4947C4.99536 28.1839 8.19836 36.675 15.2515 41.0155C23.0153 45.7934 35.353 45.8324 43.123 41.0508C50.1464 36.7286 53.3069 28.2398 45.4633 15.4947L45.1319 14.9563L45.3048 14.3461C46.1375 11.4076 45.9638 6.7542 44.9952 3.81583C42.4212 4.86947 39.5691 6.74576 37.455 8.5195L36.7687 9.09524L35.9444 8.72889C32.8283 7.34434 25.4394 7.34434 22.3233 8.72889L21.4989 9.09524L20.8127 8.5195ZM22.0078 5.76423C25.8597 4.46853 32.4081 4.46853 36.2599 5.76423C39.5353 3.17642 42.5836 1.40781 46.5963 0.27736C48.7054 4.68249 49.3317 9.7107 48.2467 14.5022C56.7826 28.7563 52.8843 38.4437 44.6392 43.5178C35.964 48.8567 22.4035 48.8173 13.7349 43.4825C5.46163 38.3909 1.52111 28.701 10.0208 14.5021C8.93575 9.71057 9.56229 4.68236 11.6712 0.277222C15.6839 1.40767 18.7323 3.17629 22.0076 5.76409L22.0078 5.76423Z" fill="#54291A"/>
<path fill-rule="evenodd" clip-rule="evenodd" d="M21.7405 7.41052C19.2899 5.35431 15.2923 2.79931 12.4468 1.99756C10.6591 5.73173 10.7117 11.7047 11.5709 14.7364C-14.0667 56.3961 72.464 56.6067 46.6965 14.7364C47.5559 11.7047 47.6083 5.73173 45.8206 1.99756C42.9751 2.79931 38.9776 5.35431 36.527 7.41052C33.0269 5.85532 25.2407 5.85532 21.7405 7.41052Z" fill="#FEA726"/>
<path fill-rule="evenodd" clip-rule="evenodd" d="M36.4445 45.2474C48.5695 42.4349 57.4948 32.2829 46.6965 14.7364C47.5558 11.7047 47.6083 5.73173 45.8206 1.99756C46.5879 6.49196 46.3822 10.9893 45.494 14.9663C54.0832 30.0326 50.1829 40.7055 36.4444 45.2473L36.4445 45.2474Z" fill="#FDFCD5"/>
<path fill-rule="evenodd" clip-rule="evenodd" d="M13.0046 3.09155C11.2169 6.82572 11.7399 11.9181 12.5992 14.9498C0.566984 34.5013 13.2213 44.4179 27.3978 45.6453C14.3493 40.7494 8.37371 30.3689 15.9989 15.0029C14.4546 12.2096 13.404 7.50167 13.0044 3.09155H13.0046Z" fill="#DE791B"/>
<path fill-rule="evenodd" clip-rule="evenodd" d="M7.56006 33.9523C13.0413 50.0584 45.3921 50.1176 50.7814 33.9748C47.298 32.9286 44.1711 33.5167 41.3315 35.3906C38.7149 31.6354 35.5628 27.9294 29.1338 27.9294C22.7049 27.9294 19.5527 31.6354 16.9362 35.3906C14.1168 33.5301 11.0138 32.9368 7.56006 33.9525V33.9523Z" fill="white"/>
<path fill-rule="evenodd" clip-rule="evenodd" d="M13.8027 33.8973C12.1286 33.3939 10.3604 33.3144 8.48746 33.7164C10.8414 40.9965 18.841 44.9047 27.3977 45.6454C20.7249 43.1417 15.9032 39.203 13.8028 33.8973H13.8027Z" fill="#EDE2BE"/>
<path fill-rule="evenodd" clip-rule="evenodd" d="M19.3807 8.80838C17.5668 7.55918 15.7531 6.55883 13.9392 5.82434C13.6025 8.12095 13.7256 10.385 14.0445 12.635C15.6966 11.0048 17.4946 9.78327 19.3807 8.80838Z" fill="#54291A"/>
<path fill-rule="evenodd" clip-rule="evenodd" d="M32.9588 29.4685C32.2307 30.8152 30.8616 31.4827 29.1338 32.0887C27.4059 31.4827 26.0369 30.8152 25.3087 29.4685C23.7927 26.665 34.475 26.665 32.9588 29.4685Z" fill="#54291A"/>
<path fill-rule="evenodd" clip-rule="evenodd" d="M38.8869 8.80838C40.7008 7.55918 42.5145 6.55883 44.3284 5.82434C44.6651 8.12095 44.5419 10.385 44.2232 12.635C42.5711 11.0048 40.773 9.78327 38.887 8.80838H38.8869Z" fill="#54291A"/>
<path fill-rule="evenodd" clip-rule="evenodd" d="M24.3337 37.2097C25.9338 36.449 27.5337 35.6884 29.1337 34.9276C30.7338 35.6883 32.3337 36.449 33.9339 37.2097C33.9339 39.3696 32.1701 41.1288 29.1337 41.1288C26.0974 41.1288 24.3337 39.3696 24.3337 37.2097Z" fill="#54291A"/>
<path fill-rule="evenodd" clip-rule="evenodd" d="M32.3199 38.8396C31.6018 39.6363 30.5195 40.1352 29.1337 40.1352C27.7479 40.1352 26.6657 39.6363 25.9474 38.8396C26.6656 38.0431 27.7479 37.5441 29.1337 37.5441C30.5195 37.5441 31.6016 38.0431 32.3199 38.8396Z" fill="#FF6B81"/>
<path d="M23.5839 33.5696C23.2829 34.74 23.4197 35.4742 23.7947 35.8732C23.9836 36.0743 24.2468 36.2028 24.5505 36.2676C24.9005 36.3423 25.2994 36.335 25.7079 36.2586C26.8343 36.0485 27.981 35.3433 28.4071 34.4022V31.4218H29.8606V34.6769L29.8123 34.8034C29.2468 36.2842 27.5809 37.3829 25.9691 37.6837C25.3785 37.7938 24.7871 37.8013 24.2497 37.6866C23.6658 37.562 23.1421 37.2961 22.7387 36.8667C22.0398 36.1228 21.7383 34.9352 22.1816 33.212L23.584 33.5694L23.5839 33.5696Z" fill="#54291A"/>
<path d="M36.0861 33.2121C36.5294 34.9354 36.2278 36.1229 35.529 36.8668C35.1256 37.2963 34.602 37.5621 34.018 37.6867C33.4806 37.8014 32.8892 37.7938 32.2988 37.6838C30.6868 37.3829 29.0208 36.2841 28.4555 34.8035L28.4072 34.677V31.4219H29.8607V34.4023C30.2868 35.3434 31.4336 36.0486 32.5601 36.2587C32.9683 36.3349 33.3672 36.3424 33.7174 36.2677C34.0211 36.2029 34.2842 36.0745 34.4732 35.8734C34.8481 35.4744 34.985 34.7402 34.6841 33.5697L36.0864 33.2122L36.0861 33.2121Z" fill="#54291A"/>
<path fill-rule="evenodd" clip-rule="evenodd" d="M19.9311 15.1154C18.134 15.6672 17.7583 17.4736 19.5243 17.6758C20.5767 17.7963 21.5876 18.1429 22.622 18.8382C23.8349 19.6534 24.6609 18.397 24.5471 17.1642C24.3427 14.9493 21.163 14.7372 19.9312 15.1154H19.9311Z" fill="white"/>
<path fill-rule="evenodd" clip-rule="evenodd" d="M19.0919 19.5111C20.9101 19.5111 22.3839 21.2216 22.3839 23.3316C22.3839 25.4417 20.9101 27.1522 19.0919 27.1522C17.2738 27.1522 15.7998 25.4417 15.7998 23.3316C15.7998 21.2216 17.2738 19.5111 19.0919 19.5111Z" fill="#54291A"/>
<path fill-rule="evenodd" clip-rule="evenodd" d="M20.1286 21.0743C20.7792 21.0743 21.3066 21.6863 21.3066 22.4415C21.3066 23.1966 20.7792 23.8086 20.1286 23.8086C19.4779 23.8086 18.9505 23.1964 18.9505 22.4415C18.9505 21.6865 19.4779 21.0743 20.1286 21.0743Z" fill="white"/>
<path fill-rule="evenodd" clip-rule="evenodd" d="M38.6095 15.1154C40.4067 15.6672 40.7823 17.4736 39.0163 17.6758C37.964 17.7963 36.953 18.1429 35.9188 18.8382C34.7058 19.6534 33.8797 18.397 33.9935 17.1642C34.198 14.9493 37.3776 14.7372 38.6095 15.1154Z" fill="white"/>
<path fill-rule="evenodd" clip-rule="evenodd" d="M39.4485 19.5111C37.6303 19.5111 36.1564 21.2216 36.1564 23.3316C36.1564 25.4417 37.6303 27.1522 39.4485 27.1522C41.2667 27.1522 42.7406 25.4417 42.7406 23.3316C42.7406 21.2216 41.2667 19.5111 39.4485 19.5111Z" fill="#54291A"/>
<path fill-rule="evenodd" clip-rule="evenodd" d="M38.4121 21.0743C37.7615 21.0743 37.234 21.6863 37.234 22.4415C37.234 23.1966 37.7615 23.8086 38.4121 23.8086C39.0627 23.8086 39.5901 23.1964 39.5901 22.4415C39.5901 21.6865 39.0627 21.0743 38.4121 21.0743Z" fill="white"/>
<path fill-rule="evenodd" clip-rule="evenodd" d="M35.2576 47.8033C31.3315 48.8121 27.1353 48.5794 22.866 48.009C27.5356 50.2025 32.4755 53.3773 35.2576 47.8033Z" fill="#BA1E35"/>
<path d="M22.4086 45.8335C24.104 49.6423 28.1513 49.8653 28.9649 49.8708C29.7786 49.8651 33.8258 49.6422 35.5212 45.8335C36.801 42.9583 36.2618 40.514 35.7806 39.2357C35.3276 39.3964 34.5977 39.4905 34.1733 39.5345C34.1808 39.5738 34.189 39.6129 34.1955 39.6525C34.2319 39.8717 34.2544 40.0953 34.2623 40.3226L35.2015 40.229C35.3417 40.2148 35.4768 40.2495 35.5894 40.3195C35.6286 40.3439 35.6651 40.3723 35.6981 40.4047C35.6992 40.4058 35.7003 40.4066 35.7014 40.4077C35.7025 40.4088 35.7035 40.4101 35.7046 40.411C35.7259 40.4328 35.7455 40.4561 35.7635 40.4809C35.77 40.4898 35.7761 40.4989 35.7821 40.508C35.7936 40.5256 35.8041 40.544 35.8138 40.5629C35.8229 40.5806 35.8312 40.5988 35.8387 40.6177C35.8484 40.6422 35.8571 40.6672 35.8637 40.6934C35.8658 40.7018 35.8709 40.7223 35.8781 40.7538C35.8835 40.7775 35.89 40.8074 35.8975 40.8433C35.9028 40.869 35.9086 40.8981 35.9147 40.9298C35.9194 40.9545 35.9244 40.9811 35.9293 41.0093C35.9303 41.0149 35.9313 41.0204 35.9322 41.0259C35.9372 41.0545 35.9423 41.0845 35.9476 41.1162C35.9544 41.1576 35.9612 41.2013 35.9681 41.2478C35.9743 41.2908 35.9807 41.336 35.9868 41.3832C35.9959 41.454 36.0048 41.5294 36.0131 41.609C36.0186 41.6622 36.0237 41.7171 36.0286 41.774C36.0334 41.8307 36.0378 41.8893 36.0417 41.9496C36.0456 42.0098 36.0491 42.0717 36.0518 42.1352C36.0532 42.1669 36.0545 42.199 36.0556 42.2315C36.0578 42.2964 36.0593 42.363 36.0601 42.4308C36.0605 42.4647 36.0608 42.4991 36.0608 42.5337C36.0608 42.7442 36.0536 42.967 36.036 43.199C36.0305 43.2722 36.024 43.3462 36.0164 43.4211C36.0118 43.465 36.007 43.5092 36.0016 43.5537C35.9888 43.6612 35.9736 43.7703 35.9559 43.8806C35.9538 43.8937 35.9516 43.907 35.9494 43.9203C35.9185 44.1069 35.8801 44.2969 35.833 44.489C35.8174 44.5526 35.8009 44.6165 35.7833 44.6804C35.7669 44.7403 35.7496 44.8005 35.7313 44.8607C35.7244 44.8836 35.7173 44.9065 35.7101 44.9294C35.6653 45.0723 35.6152 45.2159 35.5594 45.3595C35.5462 45.3934 35.5328 45.4272 35.519 45.4611C35.3528 45.8695 35.1398 46.2773 34.8682 46.6722C34.8232 46.7377 34.7766 46.8018 34.7293 46.8653C34.6696 46.9454 34.608 47.0239 34.5446 47.1009C34.5312 47.1172 34.5178 47.1335 34.5041 47.1497C34.388 47.2878 34.266 47.421 34.1379 47.5489C34.1366 47.5501 34.1355 47.5514 34.1343 47.5526C33.6817 48.0037 33.1547 48.391 32.5547 48.7142C32.4948 48.7464 32.434 48.7781 32.3726 48.8091C32.2497 48.8711 32.1239 48.9307 31.9952 48.9875C31.7378 49.1013 31.4687 49.2047 31.1882 49.2977C31.048 49.3442 30.9047 49.3881 30.7587 49.4294C30.2477 49.5739 29.7018 49.6866 29.1212 49.7669C29.0741 49.7743 29.0271 49.7804 28.9793 49.7854C28.9316 49.7804 28.8845 49.7742 28.8374 49.7669C27.7593 49.6177 26.8002 49.3572 25.9634 48.9877C25.8347 48.9308 25.7089 48.8714 25.586 48.8093C25.5246 48.7783 25.4638 48.7466 25.4039 48.7143C24.4439 48.1974 23.6706 47.5157 23.0905 46.6725C22.128 45.2725 21.8975 43.7108 21.8981 42.5339C21.8981 42.4993 21.8983 42.465 21.8988 42.4311C21.8996 42.3633 21.9011 42.2967 21.9033 42.2318C21.9044 42.1993 21.9057 42.1672 21.9071 42.1355C21.9098 42.0721 21.9133 42.0101 21.9172 41.9499C21.921 41.8897 21.9255 41.8312 21.9303 41.7743C21.9352 41.7175 21.9403 41.6624 21.9458 41.6093C21.954 41.5296 21.9628 41.4541 21.9721 41.3834C21.9782 41.3362 21.9844 41.2911 21.9908 41.2481C22.0026 41.1675 22.0145 41.0946 22.0258 41.03C22.0296 41.0084 22.0333 40.9877 22.037 40.9681C22.0457 40.9209 22.054 40.8792 22.0614 40.8434C22.0687 40.8075 22.0754 40.7776 22.0808 40.754C22.088 40.7224 22.0929 40.7019 22.0952 40.6935C22.1282 40.5634 22.2008 40.4523 22.2975 40.371C22.3113 40.3594 22.3256 40.3485 22.3404 40.3381C22.4585 40.2552 22.605 40.2134 22.7575 40.2289L23.6967 40.3225C23.6993 40.2467 23.7036 40.1713 23.7094 40.0964C23.7243 39.907 23.7504 39.7207 23.7852 39.5373C23.3657 39.4947 22.613 39.3999 22.1497 39.2356C21.6685 40.5139 21.1293 42.9581 22.409 45.8334L22.4086 45.8335Z" fill="#3076A9"/>
<path d="M24.1364 42.6418C24.0471 42.4392 23.9703 42.2301 23.9068 42.0153C23.8645 41.872 23.8281 41.7263 23.7979 41.5783L23.2062 41.5188C23.1784 41.734 23.1528 42.0065 23.1444 42.3181C23.1427 42.3804 23.1417 42.4443 23.1415 42.5096C23.141 42.6403 23.1439 42.7766 23.151 42.9173C23.1617 43.1287 23.1816 43.3501 23.2143 43.5781C23.2686 43.9578 23.3582 44.3553 23.4978 44.7527C23.7092 44.91 23.9371 45.0534 24.1761 45.1841C24.3555 45.2821 24.5411 45.3728 24.7307 45.457C24.794 45.4851 24.8576 45.5123 24.9216 45.5389C25.1135 45.6188 25.3088 45.692 25.5051 45.7594C25.5705 45.7818 25.636 45.8037 25.7014 45.8247C25.8325 45.8671 25.9636 45.9066 26.0942 45.944C26.1595 45.9627 26.2246 45.9807 26.2895 45.9981C26.549 46.0679 26.8048 46.1284 27.0514 46.1805C27.298 46.2327 27.5355 46.2769 27.7583 46.314C27.814 46.3232 27.8689 46.3321 27.9226 46.3405C28.0303 46.3574 28.1338 46.3726 28.2328 46.3862C28.5296 46.4273 28.7844 46.4547 28.979 46.4727C29.1736 46.4547 29.4284 46.4272 29.7253 46.3862C29.8242 46.3725 29.9279 46.3573 30.0354 46.3405C30.0893 46.3321 30.1441 46.3232 30.1997 46.314C30.4225 46.2769 30.66 46.2327 30.9067 46.1805C31.0146 46.1577 31.1242 46.1332 31.2351 46.1072C31.4569 46.055 31.6841 45.9962 31.9128 45.9299C32.0272 45.8967 32.1419 45.8617 32.2566 45.8247C32.5188 45.7402 32.7805 45.6452 33.0365 45.5389C33.2925 45.4325 33.5428 45.3146 33.7819 45.1839C34.0211 45.0533 34.2489 44.9099 34.4602 44.7525C34.53 44.5539 34.5873 44.3552 34.6339 44.1587C34.6806 43.9621 34.7165 43.7678 34.7438 43.5779C34.7846 43.2931 34.8057 43.0181 34.8133 42.7608C34.8158 42.675 34.8169 42.5911 34.8166 42.5095C34.8166 42.5085 34.8166 42.5077 34.8166 42.5067C34.8162 42.3772 34.8127 42.2532 34.8069 42.1359C34.804 42.0768 34.8006 42.0195 34.7965 41.9641C34.7886 41.8531 34.779 41.7495 34.7684 41.6546C34.7632 41.6071 34.7576 41.5617 34.7521 41.5187L34.1605 41.5782C34.0849 41.9481 33.9704 42.3041 33.8218 42.6418C33.792 42.7093 33.7609 42.776 33.7285 42.8421C33.6311 43.0401 33.5217 43.2312 33.4012 43.4143C33.3611 43.4754 33.3197 43.5356 33.277 43.5948C32.5103 44.6617 31.3563 45.4322 30.0227 45.6986C29.8745 45.7283 29.7242 45.7516 29.5718 45.7685C29.4194 45.7854 29.2652 45.7958 29.1093 45.7993C29.064 45.8005 29.0182 45.8011 28.9729 45.8011C28.9314 45.8011 28.8906 45.8005 28.8491 45.7993C28.4592 45.7904 28.0796 45.7389 27.7149 45.6496C27.4961 45.5959 27.2825 45.5287 27.0752 45.4487C27.0061 45.422 26.9378 45.3939 26.8701 45.3644C26.5995 45.2465 26.3406 45.1066 26.0957 44.947C25.9121 44.8273 25.7363 44.6963 25.5694 44.5553C25.0683 44.1319 24.6468 43.6174 24.3309 43.0375C24.2607 42.9086 24.1956 42.7766 24.1361 42.6415L24.1364 42.6418Z" fill="#4377A6"/>
<path d="M28.9649 37.3628C28.3493 37.3717 26.7351 37.636 25.259 39.9399C26.0018 42.8556 28.2084 43.2218 28.9649 43.26C29.7214 43.2218 31.9281 42.8555 32.6708 39.9399C31.1947 37.636 29.5805 37.3717 28.9649 37.3628Z" fill="#66A3CF"/>
<path d="M40.1925 36.5908C40.1638 36.1597 40.0942 35.7526 39.9973 35.3762C39.6405 34.9492 38.9548 34.1875 38.154 33.5973C37.2891 32.96 36.14 33.3302 35.5912 33.5713C35.4209 33.6462 35.2603 33.7417 35.1157 33.8588C33.7196 34.9891 32.2627 35.5922 31.4722 35.8628C31.6402 35.9528 31.8031 36.0512 31.9596 36.1583C32.0554 36.2237 32.1489 36.2924 32.24 36.3639C32.2855 36.3996 32.3305 36.4362 32.375 36.4734C32.4637 36.5479 32.5499 36.6251 32.6335 36.7051C32.7171 36.7851 32.798 36.8679 32.8764 36.9531C32.9546 37.0384 33.0301 37.1262 33.1027 37.2165C33.3566 37.5324 33.5752 37.8782 33.7519 38.2473L34.9863 38.0332L36.2207 37.8192C36.37 37.7932 36.5174 37.8231 36.64 37.8951C36.7013 37.931 36.7566 37.9775 36.8025 38.0329C36.8183 38.0519 36.8325 38.0722 36.8461 38.0931C36.8573 38.1105 36.8678 38.1287 36.8774 38.1475C36.8898 38.172 36.9013 38.1972 36.9107 38.2236C36.924 38.2611 36.9827 38.4309 37.0623 38.7058C37.1066 38.8585 37.1572 39.0436 37.2102 39.2565C37.2209 39.2991 37.2315 39.3427 37.2422 39.3876C37.2505 39.4219 37.2587 39.4575 37.267 39.493C38.0015 39.34 39.326 38.7574 40.1925 36.5906V36.5908Z" fill="#66A3CF"/>
<path d="M22.8141 33.8588C22.6695 33.7417 22.509 33.6462 22.3386 33.5713C21.7898 33.3302 20.6407 32.96 19.7758 33.5973C19.0057 34.1648 18.3417 34.8914 17.9747 35.3258C17.9546 35.4011 17.9354 35.4772 17.9177 35.555C17.9052 35.6097 17.8933 35.6649 17.8821 35.7207C17.8371 35.9439 17.8023 36.1763 17.78 36.4165C17.7744 36.4766 17.7696 36.5372 17.7656 36.5982C17.7643 36.6162 17.7638 36.6346 17.7628 36.6528C18.6407 38.7951 19.9688 39.3557 20.6904 39.4986C20.6991 39.4611 20.7078 39.4237 20.7166 39.3874C20.7595 39.2083 20.8015 39.0465 20.8406 38.9041C20.8796 38.7619 20.9154 38.6391 20.9462 38.5382C20.9615 38.4878 20.9755 38.4428 20.9881 38.4037C21.0192 38.3058 21.0407 38.2441 21.048 38.2233C21.0731 38.1521 21.1102 38.088 21.1562 38.0326C21.2484 37.9219 21.3769 37.8465 21.5184 37.82C21.5893 37.8068 21.6635 37.8058 21.7381 37.8188L22.9725 38.0328L24.2069 38.2469C24.3886 37.8671 24.6144 37.5124 24.8778 37.1894C25.1851 36.8125 25.5431 36.4787 25.9416 36.1984C26.1124 36.0783 26.2905 35.9681 26.4752 35.8685C25.6888 35.6007 24.2204 34.9968 22.8143 33.8583L22.8141 33.8588Z" fill="#66A3CF"/>
<path d="M14.0358 44.5474C13.9781 44.5193 13.9201 44.4908 13.862 44.462C13.9201 44.4908 13.9781 44.5192 14.0358 44.5474Z" fill="#F09F2A"/>
<path d="M16.9536 34.3582C16.9536 34.3582 16.9536 34.3582 16.9534 34.3583L16.9597 34.4203C16.9597 34.4203 16.9597 34.42 16.9598 34.4199L16.9536 34.3583V34.3582Z" fill="#F09F2A"/>
<path d="M25.4032 42.3917C25.4619 42.5037 25.5258 42.6126 25.5945 42.7181C25.6631 42.8235 25.7365 42.9257 25.8144 43.0241C26.5154 43.91 27.5791 44.4964 28.7792 44.5574C28.8132 44.5592 28.8473 44.5604 28.8815 44.5611C28.9118 44.5617 28.9422 44.5624 28.9731 44.5624C29.0078 44.5624 29.0424 44.5618 29.0772 44.5611C29.1112 44.5606 29.146 44.5586 29.1794 44.5574C31.313 44.449 33.0153 42.6797 33.0153 40.5201C32.9017 40.3134 32.7867 40.1206 32.6709 39.9398C31.9281 42.8555 29.7214 43.2217 28.9649 43.2599C28.2084 43.2217 26.0018 42.8554 25.259 39.9398C25.1534 40.1047 25.0485 40.28 24.9447 40.4664C24.9444 40.4844 24.9433 40.5021 24.9433 40.5201C24.9433 40.9251 25.0031 41.3162 25.1145 41.6853C25.1516 41.8084 25.1945 41.9289 25.2427 42.0467C25.2908 42.1645 25.3445 42.2795 25.4033 42.3916L25.4032 42.3917Z" fill="#4377A6"/>
<path d="M37.2668 39.4932C37.3127 39.6896 37.3589 39.904 37.4032 40.1349C37.5288 40.7896 37.6386 41.5717 37.6744 42.4166C38.0167 42.0889 38.3257 41.7499 38.6006 41.4012C38.6791 41.3015 38.7549 41.201 38.8277 41.0999C38.9371 40.948 39.0402 40.7944 39.1369 40.6393C39.6203 39.8633 39.9439 39.0467 40.0996 38.204C40.1308 38.0354 40.1551 37.8659 40.1728 37.6952C40.1846 37.5816 40.1933 37.4674 40.199 37.353C40.2022 37.2885 40.2044 37.2243 40.2058 37.1605C40.2098 36.9666 40.2049 36.7765 40.1926 36.5909C39.3261 38.7577 38.0016 39.3401 37.2671 39.4933L37.2668 39.4932Z" fill="#4378A6"/>
<path d="M36.4211 42.3192C36.4082 42.0839 36.3892 41.8539 36.366 41.6312C36.3239 41.2304 36.2674 40.853 36.2054 40.51C36.171 40.3195 36.135 40.1397 36.0987 39.9722C36.0698 39.8384 36.0407 39.7124 36.0125 39.5955C35.9755 39.4427 35.9398 39.3055 35.9072 39.1855C35.868 39.203 35.8258 39.2196 35.7805 39.2356C36.2618 40.5139 36.801 42.9582 35.5212 45.8335C33.8258 49.6422 29.7785 49.8652 28.9649 49.8707C28.1512 49.865 24.104 49.6421 22.4086 45.8335C21.1288 42.9582 21.668 40.5139 22.1492 39.2356C22.114 39.2231 22.0799 39.2103 22.0482 39.197C22.0164 39.3143 21.9818 39.4477 21.9461 39.5955C21.9178 39.7124 21.8888 39.8382 21.8599 39.9722C21.8237 40.1395 21.7876 40.3195 21.7531 40.51C21.6911 40.853 21.6347 41.2303 21.5926 41.6312C21.5692 41.8539 21.5504 42.0839 21.5375 42.3192C21.5324 42.4133 21.5281 42.5084 21.5251 42.604C21.5064 43.1784 21.5259 43.7795 21.6051 44.3812C21.6248 44.5317 21.6485 44.6821 21.6761 44.8323C21.7036 44.9824 21.7354 45.1322 21.7716 45.2811C21.8197 45.4797 21.8756 45.6769 21.9403 45.8719C21.9565 45.9206 21.9731 45.9692 21.9904 46.0177C22.0421 46.163 22.0989 46.3068 22.1609 46.4488C22.2023 46.5434 22.2458 46.6373 22.2921 46.7301C22.4075 46.9624 22.5382 47.1887 22.6858 47.4073C23.0947 48.0127 23.6131 48.5263 24.2388 48.9468C24.4663 49.0997 24.7081 49.2403 24.9639 49.3686C25.0918 49.4327 25.2232 49.4939 25.3581 49.5518C26.3699 49.9867 27.579 50.2477 28.9791 50.3326C30.0994 50.2647 31.0971 50.0841 31.9696 49.7918C32.115 49.7431 32.2569 49.6914 32.3953 49.6364C32.4645 49.609 32.5328 49.5808 32.6002 49.5517C32.7352 49.4937 32.8665 49.4327 32.9944 49.3685C33.0584 49.3364 33.1215 49.3036 33.1836 49.2699C34.0543 48.7992 34.7521 48.1777 35.2725 47.4072C35.4201 47.1887 35.5509 46.9622 35.6662 46.73C35.7124 46.6371 35.756 46.5433 35.7974 46.4486C35.8594 46.3066 35.9162 46.1628 35.9679 46.0175C35.9852 45.9691 36.0018 45.9205 36.018 45.8718C36.0827 45.6769 36.1386 45.4796 36.1867 45.281C36.2229 45.132 36.2546 44.9823 36.2822 44.8321C36.3099 44.682 36.3334 44.5315 36.3532 44.3811C36.4325 43.7795 36.4521 43.1784 36.4332 42.6039C36.4301 42.5081 36.4259 42.4132 36.4208 42.3191L36.4211 42.3192Z" fill="#1F5685"/>
<path d="M35.9072 39.1856C35.9023 39.1679 35.8975 39.1502 35.8928 39.1332L34.1545 39.4349C34.1614 39.4678 34.1669 39.5013 34.1733 39.5345C34.5978 39.4905 35.3276 39.3964 35.7805 39.2357C35.8258 39.2197 35.8682 39.2029 35.9072 39.1856Z" fill="#83C2F0"/>
<path d="M35.5912 33.5715C36.14 33.3304 37.2891 32.9602 38.154 33.5975C38.9549 34.1876 39.6407 34.9494 39.9973 35.3764C39.8343 34.7425 39.594 34.1957 39.3416 33.7688C39.2143 33.5535 39.0837 33.3687 38.9586 33.2187C38.8961 33.1437 38.8348 33.0773 38.7759 33.0201C38.6843 32.9313 38.5819 32.8522 38.4701 32.7829C38.3955 32.7367 38.3166 32.6949 38.234 32.6572C37.986 32.5444 37.7033 32.4704 37.3966 32.434C37.2944 32.4219 37.1896 32.414 37.0823 32.4103C36.9217 32.4048 36.7557 32.4085 36.586 32.4217C36.473 32.4304 36.3581 32.4432 36.242 32.4603C36.1259 32.4773 36.0085 32.4983 35.8902 32.5234C35.5352 32.5988 35.172 32.7108 34.8111 32.8586C34.4501 33.0064 34.0915 33.1901 33.7458 33.4086C33.0271 33.8631 32.2664 34.1885 31.5631 34.421C31.3466 34.4925 31.1356 34.5552 30.933 34.6102C30.1727 34.8163 29.5292 34.9136 29.1542 34.9574C29.1375 34.9592 29.1213 34.961 29.1057 34.9628C29.0586 34.9679 29.0163 34.9724 28.9796 34.9761C28.9429 34.9724 28.9005 34.9679 28.8535 34.9628C28.8379 34.9612 28.8215 34.9594 28.8049 34.9574C28.4799 34.9194 27.9533 34.8413 27.3238 34.687C27.0333 34.6157 26.7207 34.5282 26.3961 34.421C26.0714 34.3137 25.7345 34.1867 25.3953 34.0362C25.2822 33.9861 25.1689 33.9334 25.0555 33.8779C24.9423 33.8224 24.8291 33.7643 24.7163 33.7032C24.5472 33.6116 24.3792 33.5136 24.2132 33.4087C22.369 32.2428 20.1599 32.0725 19.1829 33.0202C18.8492 33.3441 18.4394 33.9636 18.1441 34.7829C18.082 34.9552 18.0252 35.1369 17.975 35.3261C18.342 34.8915 19.0061 34.1651 19.7761 33.5976C20.641 32.9603 21.7902 33.3305 22.3389 33.5716C22.5092 33.6465 22.6698 33.742 22.8144 33.8591C24.2206 34.9976 25.689 35.6014 26.4754 35.8692C26.5166 35.8469 26.558 35.8249 26.5999 35.8037C26.6521 35.7774 26.7047 35.752 26.7578 35.7273C26.9703 35.6288 27.1902 35.544 27.4168 35.4741C27.4734 35.4566 27.5304 35.44 27.5878 35.4244C27.9323 35.3307 28.2906 35.271 28.6589 35.2493C28.7221 35.2456 28.786 35.2425 28.8498 35.2413C28.8913 35.24 28.9321 35.2395 28.9736 35.2395C29.0189 35.2395 29.0647 35.24 29.1099 35.2413C29.1737 35.2431 29.2376 35.2456 29.3008 35.2493C29.3622 35.2529 29.4233 35.2576 29.4842 35.2634C29.6667 35.2806 29.8465 35.307 30.0231 35.3423C30.1409 35.3658 30.2573 35.3932 30.372 35.4245C30.7584 35.5296 31.127 35.6779 31.4728 35.8634C32.2633 35.5928 33.7202 34.9897 35.1164 33.8594C35.261 33.7423 35.4215 33.6468 35.5919 33.5719L35.5912 33.5715Z" fill="#83C3F1"/>
<path d="M17.7627 36.653C17.7567 36.7575 17.7527 36.8631 17.7517 36.9703C17.7506 37.0961 17.7531 37.2236 17.7596 37.3527C17.7653 37.4672 17.774 37.5814 17.7858 37.695C17.8151 37.9793 17.8634 38.2609 17.9301 38.5394C18.1037 39.2635 18.4028 39.9664 18.8217 40.639C18.9184 40.7942 19.0214 40.9478 19.1309 41.0996C19.2038 41.2009 19.2795 41.3013 19.358 41.4009C19.6329 41.7497 19.9418 42.0888 20.2842 42.4164C20.32 41.5714 20.4296 40.7893 20.5554 40.1347C20.5993 39.9061 20.6451 39.6935 20.6905 39.4986C19.9689 39.3556 18.6407 38.7951 17.7629 36.6528L17.7627 36.653Z" fill="#4378A6"/>
<path d="M28.9649 37.3628C29.5806 37.3717 31.1947 37.636 32.6708 39.94C32.7867 40.1207 32.9017 40.3135 33.0153 40.5203C33.0153 38.8332 31.9762 37.3841 30.5043 36.7793C30.3865 36.7309 30.266 36.688 30.1431 36.6506C30.0201 36.6134 29.8947 36.5818 29.7671 36.5562C29.5757 36.5179 29.3794 36.4931 29.1794 36.483C29.1459 36.4818 29.1113 36.48 29.0771 36.4793C29.0424 36.4787 29.0078 36.478 28.9731 36.478C28.9421 36.478 28.9118 36.4786 28.8814 36.4793C28.8474 36.4798 28.8134 36.4811 28.7792 36.483C26.6634 36.5905 24.9726 38.3316 24.9445 40.4666C25.0483 40.2802 25.1532 40.1048 25.2588 39.94C26.735 37.636 28.3492 37.3717 28.9648 37.3628H28.9649Z" fill="#83C2F0"/>
<path d="M23.7847 39.5374C23.7912 39.5033 23.7969 39.4688 23.8041 39.4349L22.0658 39.1332C22.0601 39.1539 22.0542 39.1753 22.0482 39.1971C22.0799 39.2104 22.114 39.2233 22.1493 39.2357C22.6126 39.4 23.3652 39.4948 23.7847 39.5374Z" fill="#83C2F0"/>
<path d="M40.8003 33.912C40.659 33.5856 40.5015 33.2855 40.335 33.0176C40.3074 32.9729 40.2793 32.9291 40.251 32.8864C40.0535 32.5864 39.8454 32.3315 39.6382 32.1304C39.3772 31.8771 39.0661 31.6747 38.7173 31.523C38.601 31.4723 38.4806 31.4273 38.3565 31.388C38.2323 31.3487 38.1045 31.3148 37.9734 31.2867C37.5145 31.1881 37.0158 31.1577 36.4971 31.1951C36.3488 31.2058 36.1991 31.222 36.0481 31.2437C35.8971 31.2654 35.745 31.2927 35.5922 31.3253C35.4394 31.358 35.2858 31.3963 35.132 31.4401C35.0551 31.4619 34.9783 31.4852 34.9012 31.5097C34.7473 31.5588 34.5934 31.6135 34.4399 31.6737C34.3632 31.7037 34.2865 31.7351 34.2102 31.7679C33.828 31.9318 33.4502 32.1297 33.0839 32.3615C32.8562 32.5055 32.6223 32.6347 32.3869 32.7509C32.2299 32.8282 32.0721 32.8999 31.9151 32.9661C31.758 33.0322 31.6015 33.093 31.447 33.1486C31.096 33.2753 30.7561 33.3753 30.4411 33.4553C30.1321 33.5338 29.8471 33.5932 29.603 33.6365C29.5999 33.637 29.5974 33.6377 29.5942 33.6377C29.3396 33.6835 29.1284 33.7121 28.979 33.7288C28.8297 33.7121 28.6185 33.6835 28.3639 33.6377C28.3608 33.6377 28.3583 33.6372 28.3551 33.6365C28.1034 33.5918 27.8083 33.5302 27.4882 33.448C26.6936 33.2438 25.7397 32.9086 24.8742 32.3615C22.53 30.8784 19.7121 30.7794 18.32 32.1304C18.0832 32.3603 17.8452 32.6605 17.6232 33.0177C17.5122 33.1964 17.4052 33.3892 17.3043 33.5947C17.2286 33.7487 17.1565 33.91 17.0887 34.0776C17.0437 34.1888 17.0005 34.303 16.9596 34.4198C16.9596 34.42 16.9596 34.4201 16.9594 34.4202C16.8977 34.5963 16.841 34.7783 16.7902 34.9655C16.7733 35.0278 16.7569 35.0908 16.7414 35.1542C16.6012 35.7252 16.5168 36.341 16.5124 36.9827C16.5114 37.1253 16.5143 37.2692 16.5215 37.4143C16.5269 37.5229 16.5348 37.6347 16.5456 37.7496C16.5672 37.9792 16.6004 38.221 16.6483 38.4725C16.6603 38.5353 16.6732 38.5988 16.687 38.663C16.7565 38.9836 16.8501 39.3189 16.9742 39.665C17.0239 39.8034 17.0784 39.9438 17.1381 40.0854C17.3773 40.6521 17.7004 41.2425 18.1331 41.8406C18.1872 41.9153 18.2429 41.9902 18.3005 42.0652C18.4155 42.2151 18.5377 42.3654 18.6673 42.5158C18.8616 42.7414 19.0726 42.9671 19.3016 43.1923C19.4542 43.3423 19.6149 43.4922 19.784 43.6416C19.9532 43.7909 20.1306 43.9397 20.317 44.0876L20.3195 44.0846C20.4428 45.4468 20.8206 46.8587 21.6552 48.0964C21.9618 48.5509 22.3162 48.9618 22.7177 49.3286C22.8324 49.4333 22.951 49.5346 23.0735 49.6322C23.196 49.7298 23.3222 49.8239 23.4523 49.9143C23.8426 50.1855 24.2672 50.4244 24.7259 50.6306C24.8788 50.6994 25.0353 50.7644 25.1957 50.8259C26.2383 51.2255 27.4398 51.4717 28.7955 51.5622C28.8563 51.5659 28.9176 51.5697 28.9789 51.5734C29.0402 51.5697 29.1015 51.5659 29.1623 51.5622C30.5181 51.4715 31.7194 51.2255 32.7621 50.8259C32.9225 50.7644 33.0791 50.6993 33.2319 50.6306C33.6906 50.4244 34.1152 50.1855 34.5055 49.9143C34.6356 49.8239 34.7618 49.7298 34.8843 49.6322C35.0068 49.5346 35.1253 49.4333 35.2401 49.3286C35.6418 48.9617 35.9961 48.5509 36.3026 48.0964C37.137 46.8587 37.515 45.4468 37.6382 44.0846L37.6407 44.0876C37.827 43.9397 38.0045 43.7909 38.1737 43.6416C38.7655 43.1191 39.2544 42.59 39.6572 42.0653C39.7147 41.9903 39.7705 41.9154 39.8246 41.8407C40.3112 41.1679 40.6596 40.5047 40.9054 39.8742C40.9327 39.8041 40.9587 39.7344 40.9836 39.6652C41.2317 38.9729 41.3584 38.324 41.4124 37.7497C41.4231 37.6349 41.431 37.523 41.4364 37.4144C41.4436 37.2695 41.4467 37.1255 41.4457 36.9829C41.4413 36.3411 41.3567 35.7252 41.2167 35.1543C41.201 35.0909 41.1848 35.028 41.1679 34.9657C41.1111 34.7563 41.0466 34.5539 40.9763 34.3585C40.9419 34.2633 40.9066 34.1693 40.8695 34.0777C40.847 34.0218 40.8239 33.9667 40.8003 33.9123V33.912ZM36.3536 44.381C36.3338 44.5315 36.3102 44.6819 36.2826 44.8321C36.2549 44.9822 36.2232 45.132 36.1871 45.2809C36.1389 45.4795 36.083 45.6767 36.0183 45.8717C36.0022 45.9204 35.9855 45.969 35.9682 46.0175C35.9165 46.1628 35.8597 46.3066 35.7977 46.4486C35.7564 46.5433 35.7128 46.6371 35.6665 46.73C35.5511 46.9622 35.4203 47.1885 35.2728 47.4071C34.7524 48.1778 34.0546 48.7993 33.1839 49.2699C33.1218 49.3035 33.0587 49.3363 32.9947 49.3684C32.8668 49.4325 32.7354 49.4937 32.6006 49.5517C32.5332 49.5806 32.4648 49.6088 32.3956 49.6364C32.2572 49.6913 32.1153 49.7431 31.9699 49.7918C31.0975 50.0839 30.0997 50.2645 28.9795 50.3325C27.5793 50.2477 26.3702 49.9866 25.3584 49.5518C25.2234 49.4938 25.0921 49.4328 24.9642 49.3685C24.7084 49.2403 24.4667 49.0996 24.2391 48.9467C23.6134 48.5261 23.095 48.0126 22.6861 47.4073C22.5385 47.1887 22.4077 46.9623 22.2924 46.7301C22.2462 46.6372 22.2026 46.5434 22.1612 46.4487C22.0992 46.3067 22.0424 46.1629 21.9907 46.0176C21.9734 45.9692 21.9568 45.9206 21.9406 45.8719C21.8759 45.677 21.82 45.4796 21.7719 45.281C21.7357 45.1321 21.704 44.9824 21.6764 44.8322C21.6487 44.682 21.6252 44.5316 21.6054 44.3812C21.5261 43.7795 21.5066 43.1785 21.5254 42.604C21.5286 42.5082 21.5327 42.4133 21.5378 42.3191C21.5507 42.0839 21.5697 41.8538 21.5929 41.6312C21.635 41.2304 21.6915 40.8529 21.7535 40.51C21.7879 40.3194 21.8239 40.1396 21.8602 39.9722C21.8891 39.8383 21.9182 39.7124 21.9464 39.5954C21.9821 39.4476 22.0167 39.3142 22.0485 39.197C22.0545 39.1751 22.0603 39.1538 22.0661 39.133L23.8044 39.4348C23.7972 39.4687 23.7915 39.5031 23.785 39.5373C23.7503 39.7207 23.7241 39.907 23.7093 40.0964C23.7035 40.1713 23.6992 40.2467 23.6966 40.3224L22.7574 40.2289C22.605 40.2134 22.4583 40.2552 22.3403 40.3381C22.3255 40.3485 22.3112 40.3594 22.2974 40.371C22.2006 40.4523 22.1281 40.5634 22.095 40.6935C22.093 40.7019 22.0878 40.7224 22.0806 40.754C22.0752 40.7776 22.0687 40.8075 22.0613 40.8434C22.0539 40.8792 22.0456 40.9209 22.0369 40.9681C22.0333 40.9877 22.0296 41.0084 22.0257 41.03C22.0143 41.0946 22.0024 41.1675 21.9907 41.2481C21.9844 41.2911 21.9781 41.3362 21.972 41.3834C21.9629 41.4543 21.954 41.5297 21.9457 41.6093C21.9402 41.6624 21.935 41.7174 21.9302 41.7743C21.9254 41.831 21.9209 41.8896 21.917 41.9499C21.9132 42.0102 21.9097 42.072 21.9069 42.1355C21.9056 42.1672 21.9043 42.1993 21.9032 42.2318C21.901 42.2967 21.8995 42.3633 21.8986 42.4311C21.8982 42.465 21.8979 42.4993 21.8979 42.5339C21.8974 43.7108 22.1277 45.2725 23.0904 46.6725C23.6706 47.5156 24.4438 48.1974 25.4038 48.7143C25.4637 48.7466 25.5244 48.7783 25.5859 48.8093C25.7088 48.8713 25.8346 48.9308 25.9633 48.9877C26.7999 49.3573 27.7592 49.6177 28.8373 49.7669C28.8844 49.7743 28.9314 49.7804 28.9792 49.7854C29.0269 49.7804 29.074 49.7742 29.121 49.7669C29.7016 49.6865 30.2476 49.5739 30.7586 49.4294C30.9046 49.3882 31.0477 49.3442 31.188 49.2977C31.4686 49.2047 31.7376 49.1013 31.9951 48.9875C32.1238 48.9307 32.2496 48.8713 32.3725 48.8091C32.4339 48.7781 32.4947 48.7464 32.5546 48.7142C33.1546 48.3912 33.6816 48.0036 34.1342 47.5526C34.1354 47.5514 34.1365 47.5501 34.1378 47.5489C34.2659 47.421 34.3879 47.2878 34.504 47.1497C34.5175 47.1335 34.531 47.1172 34.5445 47.1009C34.6079 47.0239 34.6694 46.9453 34.7292 46.8653C34.7765 46.8018 34.8231 46.7377 34.8681 46.6722C35.1396 46.2774 35.3525 45.8695 35.5189 45.4611C35.5327 45.4272 35.5461 45.3934 35.5593 45.3595C35.615 45.2159 35.6652 45.0723 35.71 44.9294C35.7172 44.9065 35.7242 44.8836 35.7312 44.8607C35.7494 44.8005 35.7667 44.7403 35.7832 44.6804C35.8008 44.6164 35.8173 44.5526 35.8329 44.489C35.8799 44.2969 35.9184 44.1069 35.9493 43.9203C35.9515 43.907 35.9536 43.8939 35.9558 43.8806C35.9735 43.7703 35.9886 43.6612 36.0015 43.5537C36.0067 43.5092 36.0117 43.465 36.0163 43.4211C36.0239 43.3462 36.0304 43.2722 36.0359 43.199C36.0535 42.967 36.0608 42.7442 36.0607 42.5337C36.0607 42.4991 36.0604 42.4647 36.06 42.4308C36.0592 42.363 36.0577 42.2964 36.0554 42.2315C36.0543 42.199 36.0531 42.1669 36.0517 42.1352C36.0489 42.0718 36.0455 42.0098 36.0416 41.9496C36.0377 41.8894 36.0333 41.8309 36.0285 41.774C36.0236 41.7172 36.0185 41.6622 36.0129 41.609C36.0048 41.5293 35.9958 41.4539 35.9867 41.3831C35.9806 41.336 35.9743 41.2908 35.968 41.2478C35.9612 41.2013 35.9543 41.1574 35.9475 41.1162C35.9424 41.0845 35.9372 41.0544 35.9321 41.0259C35.9312 41.0203 35.9302 41.0147 35.9292 41.0093C35.9241 40.9811 35.9193 40.9545 35.9145 40.9297C35.9085 40.8981 35.9026 40.869 35.8974 40.8432C35.8899 40.8074 35.8834 40.7775 35.878 40.7538C35.8708 40.7223 35.8658 40.7018 35.8636 40.6934C35.857 40.6672 35.8483 40.6422 35.8386 40.6177C35.8311 40.5988 35.8228 40.5806 35.8137 40.5629C35.804 40.5439 35.7934 40.5256 35.782 40.508C35.776 40.4988 35.7698 40.4898 35.7634 40.4809C35.7454 40.4561 35.7258 40.4328 35.7045 40.411C35.7033 40.4099 35.7024 40.4087 35.7013 40.4077C35.7002 40.4066 35.6991 40.4058 35.698 40.4047C35.665 40.3721 35.6285 40.3439 35.5893 40.3195C35.4767 40.2494 35.3416 40.2148 35.2014 40.229L34.2622 40.3226C34.2543 40.0953 34.2317 39.8717 34.1953 39.6525C34.1888 39.6129 34.1807 39.5738 34.1732 39.5345C34.1668 39.5013 34.1614 39.4678 34.1544 39.4349L35.8927 39.1332C35.8974 39.1502 35.9022 39.1679 35.9071 39.1856C35.9397 39.3056 35.9754 39.4428 36.0124 39.5956C36.0406 39.7125 36.0697 39.8383 36.0986 39.9723C36.1347 40.1396 36.1709 40.3195 36.2053 40.5101C36.2672 40.8531 36.3238 41.2304 36.3659 41.6313C36.3893 41.854 36.4081 42.084 36.421 42.3193C36.4261 42.4134 36.4304 42.5085 36.4334 42.6041C36.4521 43.1785 36.4326 43.7795 36.3534 44.3813L36.3536 44.381ZM25.5697 44.5556C25.7366 44.6966 25.9124 44.8274 26.096 44.9472C26.3409 45.1069 26.5998 45.2469 26.8704 45.3646C26.9381 45.3941 27.0064 45.4222 27.0755 45.4489C27.2827 45.5289 27.4962 45.5963 27.7152 45.6499C28.08 45.7393 28.4595 45.7906 28.8494 45.7995C28.8909 45.8007 28.9317 45.8013 28.9732 45.8013C29.0185 45.8013 29.0643 45.8007 29.1096 45.7995C29.2655 45.7959 29.4197 45.7855 29.5721 45.7688C29.7245 45.7519 29.8748 45.7285 30.023 45.6989C31.3566 45.4325 32.5107 44.6618 33.2773 43.5951C33.32 43.5358 33.3613 43.4756 33.4015 43.4146C33.522 43.2313 33.6314 43.0403 33.7288 42.8423C33.7612 42.7763 33.7923 42.7094 33.8221 42.642C33.9709 42.3045 34.0852 41.9484 34.1607 41.5784L34.7524 41.5189C34.7579 41.562 34.7635 41.6074 34.7687 41.6548C34.7793 41.7498 34.7889 41.8533 34.7968 41.9643C34.8008 42.0198 34.8043 42.0771 34.8072 42.1362C34.813 42.2534 34.8166 42.3774 34.8169 42.507C34.8169 42.5079 34.8169 42.5088 34.8169 42.5097C34.8172 42.5914 34.8161 42.6752 34.8136 42.7611C34.806 43.0185 34.7849 43.2933 34.7441 43.5782C34.7168 43.7681 34.6809 43.9624 34.6342 44.1589C34.5876 44.3554 34.5303 44.554 34.4605 44.7528C34.2492 44.9101 34.0212 45.0535 33.7822 45.1842C33.5431 45.3148 33.2928 45.4327 33.0368 45.5392C32.7808 45.6456 32.519 45.7404 32.2569 45.825C32.1422 45.8619 32.0274 45.8969 31.9131 45.9301C31.6845 45.9964 31.4574 46.0553 31.2354 46.1074C31.1244 46.1334 31.0148 46.1579 30.907 46.1808C30.6603 46.233 30.4228 46.2771 30.2 46.3142C30.1442 46.3235 30.0894 46.3323 30.0357 46.3408C29.9282 46.3577 29.8245 46.3729 29.7256 46.3864C29.4287 46.4276 29.1739 46.455 28.9793 46.4729C28.7847 46.455 28.5299 46.4274 28.2331 46.3864C28.1341 46.3727 28.0305 46.3575 27.9229 46.3408C27.8691 46.3323 27.8143 46.3235 27.7586 46.3142C27.5358 46.2771 27.2983 46.233 27.0517 46.1808C26.8051 46.1285 26.5493 46.0681 26.2898 45.9984C26.2249 45.9809 26.1598 45.9629 26.0945 45.9443C25.964 45.907 25.8328 45.8673 25.7017 45.825C25.6363 45.8038 25.5707 45.7821 25.5053 45.7596C25.3091 45.6922 25.1139 45.619 24.9218 45.5392C24.8579 45.5126 24.7942 45.4852 24.731 45.4572C24.5414 45.3731 24.3558 45.2823 24.1764 45.1843C23.9373 45.0537 23.7095 44.9103 23.4981 44.7529C23.3586 44.3557 23.2689 43.9582 23.2145 43.5783C23.1819 43.3504 23.1618 43.1289 23.1513 42.9176C23.1442 42.7767 23.1413 42.6404 23.1417 42.5099C23.1419 42.4445 23.1429 42.3807 23.1447 42.3183C23.153 42.0068 23.1786 41.7344 23.2065 41.5191L23.7982 41.5786C23.8284 41.7265 23.8648 41.8723 23.9071 42.0155C23.9706 42.2303 24.0474 42.4396 24.1367 42.642C24.1962 42.7771 24.2611 42.9091 24.3314 43.038C24.6474 43.6179 25.0688 44.1325 25.57 44.5558L25.5697 44.5556ZM24.9434 40.5202C24.9434 40.5022 24.9445 40.4845 24.9448 40.4665C24.9729 38.3314 26.6636 36.5905 28.7795 36.483C28.8135 36.4812 28.8476 36.4799 28.8818 36.4792C28.9121 36.4787 28.9425 36.478 28.9734 36.478C29.0081 36.478 29.0427 36.4785 29.0774 36.4792C29.1115 36.4798 29.1462 36.4817 29.1797 36.483C29.3797 36.4931 29.576 36.5178 29.7674 36.5562C29.895 36.5818 30.0204 36.6133 30.1434 36.6506C30.2664 36.6878 30.3869 36.7308 30.5046 36.7793C31.9765 37.3841 33.0156 38.8331 33.0156 40.5202C33.0156 42.6798 31.3133 44.4491 29.1797 44.5575C29.1462 44.5587 29.1116 44.5605 29.0774 44.5612C29.0427 44.5618 29.0081 44.5625 28.9734 44.5625C28.9424 44.5625 28.9121 44.5619 28.8818 44.5612C28.8477 44.5607 28.8137 44.5594 28.7795 44.5575C27.5794 44.4965 26.5157 43.9101 25.8147 43.0242C25.7367 42.9258 25.6634 42.8236 25.5947 42.7182C25.5261 42.6127 25.4623 42.5038 25.4035 42.3918C25.3448 42.2798 25.2911 42.1648 25.2428 42.0469C25.1946 41.9291 25.1517 41.8086 25.1146 41.6855C25.0034 41.3164 24.9434 40.9253 24.9434 40.5204V40.5202ZM27.6656 47.5572C27.702 47.563 27.738 47.5687 27.7736 47.5741C27.8803 47.5905 27.9831 47.6053 28.0817 47.6188C28.1474 47.6278 28.2112 47.6361 28.2729 47.6438C28.3964 47.6593 28.5115 47.6723 28.617 47.6834C28.7201 47.6946 28.8142 47.7036 28.8979 47.7111C28.9259 47.7136 28.9526 47.7159 28.9782 47.7181C28.9789 47.7176 28.98 47.7181 28.9807 47.7181C29.0063 47.7159 29.033 47.7137 29.061 47.7111C29.1447 47.7036 29.2388 47.6946 29.3419 47.6834C29.4475 47.6723 29.5625 47.6592 29.686 47.6438C29.7477 47.6361 29.8115 47.6278 29.8773 47.6188C29.9758 47.6053 30.0788 47.5905 30.1853 47.5741C30.2209 47.5685 30.2569 47.563 30.2933 47.5572C30.5115 47.5223 30.7442 47.4809 30.987 47.4319C31.1487 47.3993 31.3151 47.3633 31.4846 47.3237C31.7814 47.2542 32.0879 47.1735 32.3975 47.0796C32.6187 47.0124 32.8414 46.9387 33.0631 46.8576C32.7593 47.1294 32.417 47.3712 32.0366 47.5826C31.9605 47.625 31.883 47.6661 31.8038 47.7059C31.6798 47.7684 31.5509 47.827 31.4196 47.8835C31.3598 47.9093 31.2993 47.9346 31.238 47.9591C31.031 48.0417 30.8151 48.1173 30.5904 48.1858C30.5356 48.2025 30.4803 48.2189 30.4244 48.2348C30.2606 48.2813 30.0933 48.325 29.9207 48.3642C29.8205 48.387 29.7189 48.4085 29.6158 48.4288C29.4096 48.4694 29.1974 48.5051 28.9793 48.5358C28.7612 48.5051 28.549 48.4694 28.3428 48.4288C28.2397 48.4085 28.1381 48.387 28.0379 48.3642C27.3369 48.2047 26.7087 47.9851 26.1549 47.7059C25.9967 47.6262 25.8444 47.5415 25.6984 47.4521C25.5524 47.3627 25.4123 47.2683 25.2786 47.1692C25.2118 47.1197 25.1463 47.0689 25.0825 47.017C25.0187 46.9651 24.9564 46.9118 24.8957 46.8576C25.0287 46.9063 25.1621 46.9522 25.2954 46.9958C25.695 47.1263 26.0927 47.2344 26.4743 47.3237C26.559 47.3435 26.643 47.3624 26.726 47.3804C26.8091 47.3984 26.8911 47.4156 26.972 47.4319C27.0124 47.4401 27.0527 47.448 27.0925 47.4557C27.292 47.4945 27.4838 47.528 27.6656 47.5572ZM40.1991 37.3527C40.1935 37.4671 40.1847 37.5813 40.173 37.6949C40.1554 37.8654 40.1309 38.0351 40.0998 38.2037C39.9441 39.0464 39.6205 39.863 39.1371 40.639C39.0403 40.7941 38.9373 40.9477 38.8279 41.0996C38.7549 41.2009 38.6792 41.3012 38.6008 41.4009C38.3259 41.7496 38.017 42.0887 37.6746 42.4163C37.6387 41.5714 37.5291 40.7893 37.4033 40.1346C37.359 39.9038 37.3127 39.6893 37.267 39.4929C37.2587 39.4573 37.2504 39.4217 37.2422 39.3874C37.2314 39.3427 37.2208 39.299 37.2102 39.2564C37.1572 39.0435 37.1066 38.8583 37.0623 38.7057C36.9827 38.4308 36.924 38.261 36.9108 38.2235C36.9015 38.197 36.89 38.1719 36.8774 38.1474C36.8678 38.1285 36.8575 38.1104 36.8461 38.093C36.8326 38.0721 36.8183 38.0517 36.8025 38.0328C36.7564 37.9774 36.7014 37.9309 36.64 37.8949C36.5174 37.8229 36.3699 37.7931 36.2207 37.8191L34.9863 38.033L33.7519 38.2471C33.5752 37.878 33.3568 37.5323 33.1027 37.2163C33.0302 37.1261 32.9546 37.0382 32.8764 36.953C32.7982 36.8677 32.7171 36.7849 32.6335 36.705C32.5499 36.625 32.4637 36.5477 32.375 36.4733C32.3305 36.436 32.2857 36.3995 32.24 36.3638C32.149 36.2922 32.0554 36.2237 31.9596 36.1581C31.8031 36.051 31.6402 35.9527 31.4722 35.8626C31.1263 35.6773 30.7578 35.529 30.3714 35.4238C30.2565 35.3925 30.1402 35.3651 30.0224 35.3416C29.8458 35.3063 29.6661 35.2798 29.4835 35.2627C29.4226 35.257 29.3616 35.2523 29.3001 35.2486C29.2369 35.2448 29.1731 35.2423 29.1093 35.2405C29.064 35.2393 29.0182 35.2387 28.973 35.2387C28.9314 35.2387 28.8906 35.2393 28.8491 35.2405C28.7853 35.2418 28.7215 35.2448 28.6582 35.2486C28.29 35.2703 27.9316 35.3299 27.5872 35.4236C27.5297 35.4393 27.4727 35.4559 27.4161 35.4733C27.1897 35.5434 26.9696 35.6281 26.7572 35.7266C26.704 35.7512 26.6514 35.7767 26.5993 35.803C26.5573 35.8242 26.5159 35.8463 26.4747 35.8685C26.2899 35.968 26.1118 36.0783 25.941 36.1984C25.5426 36.4787 25.1844 36.8125 24.8773 37.1894C24.6139 37.5124 24.3882 37.8671 24.2063 38.2469L22.9719 38.0328L21.7375 37.8188C21.6629 37.8058 21.5888 37.8068 21.5179 37.82C21.3762 37.8465 21.2477 37.9219 21.1557 38.0326C21.1096 38.088 21.0727 38.1521 21.0475 38.2233C21.0401 38.2441 21.0187 38.3058 20.9876 38.4037C20.9751 38.4428 20.961 38.4877 20.9456 38.5382C20.9149 38.639 20.879 38.7619 20.84 38.9041C20.801 39.0464 20.7591 39.2083 20.716 39.3874C20.7073 39.4235 20.6986 39.4609 20.6899 39.4986C20.6446 39.6934 20.5986 39.906 20.5548 40.1346C20.4291 40.7893 20.3194 41.5714 20.2835 42.4163C19.9412 42.0886 19.6322 41.7496 19.3573 41.4009C19.2789 41.3012 19.203 41.2007 19.1302 41.0996C19.0209 40.9477 18.9178 40.7941 18.821 40.639C18.4021 39.9665 18.1032 39.2634 17.9295 38.5393C17.8628 38.2608 17.8145 37.9792 17.7851 37.6949C17.7734 37.5813 17.7646 37.4671 17.759 37.3527C17.7526 37.2235 17.75 37.0961 17.7511 36.9703C17.752 36.863 17.7561 36.7574 17.762 36.6529C17.763 36.6348 17.7637 36.6164 17.7648 36.5984C17.7688 36.5373 17.7735 36.4767 17.7792 36.4167C17.8016 36.1763 17.8365 35.9439 17.8813 35.7208C17.8925 35.665 17.9044 35.6098 17.9169 35.5551C17.9346 35.4773 17.954 35.4012 17.9739 35.3259C18.0241 35.1367 18.0809 34.9552 18.143 34.7827C18.4384 33.9634 18.8482 33.3439 19.1818 33.0201C20.1588 32.0723 22.368 32.2425 24.2121 33.4085C24.3779 33.5134 24.5461 33.6114 24.7152 33.7031C24.828 33.7641 24.9411 33.8224 25.0544 33.8777C25.1678 33.9332 25.2811 33.9859 25.3942 34.036C25.7334 34.1865 26.0703 34.3135 26.395 34.4208C26.7197 34.5281 27.0322 34.6155 27.3227 34.6868C27.9523 34.8411 28.479 34.9192 28.8038 34.9572C28.8206 34.959 28.8368 34.9608 28.8524 34.9626C28.8995 34.9678 28.9418 34.9722 28.9785 34.9759C29.0152 34.9722 29.0575 34.9678 29.1046 34.9626C29.1202 34.961 29.1365 34.9592 29.1532 34.9572C29.5281 34.9134 30.1716 34.8162 30.9319 34.61C31.1346 34.555 31.3457 34.4923 31.562 34.4208C32.2654 34.1884 33.026 33.863 33.7447 33.4084C34.0906 33.1899 34.4492 33.0062 34.81 32.8584C35.1709 32.7106 35.5341 32.5986 35.8891 32.5232C36.0074 32.498 36.1248 32.477 36.2409 32.4601C36.357 32.4431 36.4717 32.4303 36.585 32.4215C36.7546 32.4083 36.9204 32.4046 37.0813 32.4101C37.1884 32.4139 37.2933 32.4217 37.3956 32.4338C37.7021 32.47 37.9847 32.5442 38.2329 32.657C38.3157 32.6947 38.3944 32.7365 38.469 32.7827C38.581 32.852 38.6834 32.9311 38.7749 33.0199C38.8337 33.0771 38.895 33.1434 38.9575 33.2185C39.0827 33.3685 39.2132 33.5534 39.3405 33.7687C39.5929 34.1955 39.8332 34.7423 39.9962 35.3762C40.0931 35.7526 40.1627 36.1597 40.1914 36.5908C40.2037 36.7764 40.2085 36.9664 40.2045 37.1603C40.2033 37.2241 40.2011 37.2882 40.1978 37.3528L40.1991 37.3527Z" fill="#173978"/>
</g>
<defs>
<clipPath id="clip0_3429_1772">
<rect width="55.36" height="55.36" fill="white" transform="translate(0.319946)"/>
</clipPath>
</defs>
</svg>
